<?xml version="1.0" encoding="UTF-8"?>
<!DOCTYPE svg PUBLIC "-//W3C//DTD SVG 1.1//EN" "http://www.w3.org/Graphics/SVG/1.1/DTD/svg11.dtd">
<!-- Creator: CorelDRAW 2026 -->
<svg xmlns="http://www.w3.org/2000/svg" xml:space="preserve" width="341.307mm" height="283.061mm" version="1.1" style="shape-rendering:geometricPrecision; text-rendering:geometricPrecision; image-rendering:optimizeQuality; fill-rule:evenodd; clip-rule:evenodd"
viewBox="0 0 34130.66 28306.09"
 xmlns:xlink="http://www.w3.org/1999/xlink"
 xmlns:xodm="http://www.corel.com/coreldraw/odm/2003">
 <defs>
  <style type="text/css">
   <![CDATA[
    .fil0 {fill:black}
    .fil1 {fill:black;fill-rule:nonzero}
   ]]>
  </style>
 </defs>
 <g id="Layer_x0020_1">
  <metadata id="CorelCorpID_0Corel-Layer"/>
  <path class="fil0" d="M23447.66 0l3681.71 0c302.08,0 549.22,247.14 549.22,549.22l0 3681.71c0,302.08 -247.14,549.22 -549.22,549.22l-3681.71 0c-302.08,0 -549.22,-247.14 -549.22,-549.22l0 -3681.71c0,-302.08 247.14,-549.22 549.22,-549.22zm-5468.43 5437.28l3681.71 0c302.08,0 549.22,247.13 549.22,549.22l0 3681.71c0,302.08 -247.14,549.22 -549.22,549.22l-3681.71 0c-302.09,0 -549.22,-247.14 -549.22,-549.22l0 -3681.71c0,-302.09 247.13,-549.22 549.22,-549.22zm-5490.08 5479.18l3681.71 0c302.09,0 549.23,247.14 549.23,549.22l0 3681.71c0,302.08 -247.14,549.22 -549.23,549.22l-3681.71 0c-302.08,0 -549.22,-247.14 -549.22,-549.22l0 -3681.71c0,-302.08 247.14,-549.22 549.22,-549.22zm-5487.88 -5441.78l3681.71 0c302.08,0 549.22,247.14 549.22,549.22l0 3681.71c0,302.09 -247.14,549.23 -549.22,549.23l-3681.71 0c-302.08,0 -549.22,-247.14 -549.22,-549.23l0 -3681.71c0,-302.08 247.14,-549.22 549.22,-549.22z"/>
  <path class="fil1" d="M187.93 28215.16c-54.56,0 -90.93,-18.19 -136.4,-54.56 -36.37,-36.37 -54.56,-81.84 -54.56,-136.39 0,-27.28 9.1,-54.56 18.19,-81.84l2191.42 -5865c18.18,-63.65 54.55,-118.21 109.11,-163.67 45.47,-45.47 118.21,-63.65 209.14,-63.65l991.14 0c90.93,0 163.68,18.18 209.14,63.65 54.56,45.46 90.93,100.02 109.12,163.67l2191.41 5865c9.1,27.28 9.1,54.56 9.1,81.84 0,54.55 -18.19,100.02 -54.56,136.39 -36.37,36.37 -81.84,54.56 -127.3,54.56l-791.1 0c-90.93,0 -145.48,-18.19 -190.95,-63.65 -36.37,-36.37 -63.65,-72.75 -72.74,-109.12l-427.38 -1109.35 -2700.62 0 -427.37 1109.35c-9.1,36.37 -36.38,72.75 -72.75,109.12 -45.46,45.46 -109.11,63.65 -190.95,63.65l-791.09 0zm1800.41 -2327.81l2064.12 0 -1036.61 -2809.75 -1027.51 2809.75z"/>
  <path id="_1" class="fil1" d="M8468.63 28306.09c-318.25,0 -591.04,-54.56 -827.46,-163.67 -245.51,-100.03 -436.47,-254.61 -600.14,-445.56 -163.68,-190.96 -281.89,-418.28 -363.72,-681.98 -81.84,-263.7 -136.4,-554.67 -145.49,-872.93 -9.09,-109.11 -9.09,-209.14 -9.09,-290.98 0,-90.93 0,-190.95 9.09,-300.06 9.09,-300.07 54.56,-581.96 136.39,-845.66 90.93,-263.69 209.14,-491.02 372.82,-691.07 154.58,-190.95 354.63,-345.53 591.04,-454.65 245.52,-109.11 518.31,-163.67 836.56,-163.67 327.35,0 600.14,54.56 827.47,172.77 227.32,109.11 418.28,254.6 572.86,427.37l0 -2018.65c0,-63.65 18.18,-118.21 54.56,-154.58 45.46,-45.47 100.02,-63.65 163.67,-63.65l772.91 0c63.65,0 118.21,18.18 154.58,63.65 45.46,36.37 63.65,90.93 63.65,154.58l0 6019.58c0,63.65 -18.19,118.21 -63.65,154.58 -36.37,45.46 -90.93,63.65 -154.58,63.65l-718.35 0c-63.65,0 -118.21,-18.19 -154.58,-63.65 -45.47,-36.37 -63.65,-90.93 -63.65,-154.58l0 -336.44c-154.59,181.86 -345.54,345.53 -581.96,463.74 -227.32,118.21 -527.39,181.86 -872.93,181.86zm336.44 -972.95c254.61,0 454.65,-54.56 609.24,-172.77 145.48,-118.21 263.69,-263.7 336.44,-436.47 72.74,-181.86 109.11,-363.72 118.21,-554.67 9.09,-109.12 9.09,-227.32 9.09,-354.63 0,-118.21 0,-236.42 -9.09,-345.53 -9.1,-181.86 -54.56,-354.63 -127.31,-518.3 -72.74,-172.77 -190.95,-309.17 -345.53,-418.28 -145.49,-109.12 -345.53,-163.68 -591.05,-163.68 -254.6,0 -454.65,54.56 -600.14,163.68 -154.58,118.21 -263.69,263.69 -327.34,445.55 -63.66,181.87 -100.03,381.91 -118.21,600.14 -9.1,181.86 -9.1,363.73 0,545.59 18.18,218.23 54.55,418.27 118.21,600.13 63.65,181.87 172.76,327.35 327.34,445.56 145.49,109.12 345.54,163.68 600.14,163.68z"/>
  <path id="_2" class="fil1" d="M14041.14 28306.09c-318.25,0 -591.04,-54.56 -827.46,-163.67 -245.51,-100.03 -436.47,-254.61 -600.14,-445.56 -163.68,-190.96 -281.89,-418.28 -363.72,-681.98 -81.84,-263.7 -136.4,-554.67 -145.49,-872.93 -9.09,-109.11 -9.09,-209.14 -9.09,-290.98 0,-90.93 0,-190.95 9.09,-300.06 9.09,-300.07 54.56,-581.96 136.39,-845.66 90.93,-263.69 209.14,-491.02 372.82,-691.07 154.58,-190.95 354.63,-345.53 591.04,-454.65 245.52,-109.11 518.31,-163.67 836.56,-163.67 327.35,0 600.14,54.56 827.47,172.77 227.32,109.11 418.28,254.6 572.86,427.37l0 -2018.65c0,-63.65 18.18,-118.21 54.56,-154.58 45.46,-45.47 100.02,-63.65 163.67,-63.65l772.91 0c63.65,0 118.21,18.18 154.58,63.65 45.46,36.37 63.65,90.93 63.65,154.58l0 6019.58c0,63.65 -18.19,118.21 -63.65,154.58 -36.37,45.46 -90.93,63.65 -154.58,63.65l-718.35 0c-63.65,0 -118.21,-18.19 -154.58,-63.65 -45.47,-36.37 -63.65,-90.93 -63.65,-154.58l0 -336.44c-154.59,181.86 -345.54,345.53 -581.96,463.74 -227.32,118.21 -527.39,181.86 -872.93,181.86zm336.44 -972.95c254.61,0 454.65,-54.56 609.24,-172.77 145.48,-118.21 263.69,-263.7 336.44,-436.47 72.74,-181.86 109.11,-363.72 118.21,-554.67 9.09,-109.12 9.09,-227.32 9.09,-354.63 0,-118.21 0,-236.42 -9.09,-345.53 -9.1,-181.86 -54.56,-354.63 -127.31,-518.3 -72.74,-172.77 -190.95,-309.17 -345.53,-418.28 -145.49,-109.12 -345.53,-163.68 -591.05,-163.68 -254.6,0 -454.65,54.56 -600.14,163.68 -154.58,118.21 -263.69,263.69 -327.34,445.55 -63.66,181.87 -100.03,381.91 -118.21,600.14 -9.1,181.86 -9.1,363.73 0,545.59 18.18,218.23 54.55,418.27 118.21,600.13 63.65,181.87 172.76,327.35 327.34,445.56 145.49,109.12 345.54,163.68 600.14,163.68z"/>
  <path id="_3" class="fil1" d="M20413.84 28306.09c-536.49,0 -1000.23,-90.93 -1391.23,-272.79 -391,-181.86 -691.07,-454.65 -909.31,-827.47 -218.23,-363.72 -336.44,-827.46 -354.62,-1391.23 -9.1,-254.6 -9.1,-518.3 -9.1,-772.9 0,-254.61 0,-509.21 9.1,-782 18.18,-545.58 136.39,-1009.33 363.72,-1382.14 218.23,-372.82 527.39,-654.7 918.39,-836.56 400.09,-190.95 854.75,-281.88 1373.05,-281.88 527.39,0 982.04,90.93 1373.04,281.88 391,181.86 700.17,463.74 927.49,836.56 227.33,372.81 345.54,836.56 363.72,1382.14 9.1,272.79 18.19,527.39 18.19,782 0,254.6 -9.09,518.3 -18.19,772.9 -18.18,563.77 -136.39,1027.51 -354.63,1391.23 -218.23,372.82 -518.3,645.61 -909.3,827.47 -391,181.86 -854.74,272.79 -1400.32,272.79zm0 -1045.7c391,0 709.25,-118.21 963.86,-354.62 245.51,-236.42 381.9,-609.24 400.09,-1136.63 9.09,-263.7 18.19,-518.3 18.19,-736.54 0,-227.32 -9.1,-472.83 -18.19,-736.53 -9.09,-345.54 -72.74,-636.51 -200.05,-854.75 -118.2,-218.23 -272.79,-381.9 -472.83,-481.93 -200.05,-109.11 -427.37,-154.58 -691.07,-154.58 -254.61,0 -481.93,45.47 -681.98,154.58 -200.05,100.03 -354.63,263.7 -472.84,481.93 -118.2,218.24 -190.95,509.21 -200.04,854.75 -9.1,263.7 -9.1,509.21 -9.1,736.53 0,218.24 0,472.84 9.1,736.54 18.18,527.39 154.58,900.21 400.09,1136.63 254.61,236.41 572.86,354.62 954.77,354.62z"/>
  <path id="_4" class="fil1" d="M24392.03 28215.16c-63.65,0 -109.11,-18.19 -154.58,-63.65 -36.37,-36.37 -63.65,-90.93 -63.65,-154.58l0 -4291.91c0,-63.65 27.28,-118.21 63.65,-154.58 45.47,-45.46 90.93,-63.65 154.58,-63.65l745.63 0c63.65,0 109.12,18.19 154.58,63.65 36.37,36.37 63.65,90.93 63.65,154.58l0 372.82c154.58,-190.96 354.63,-354.63 609.23,-491.03 245.52,-127.3 545.59,-190.95 909.31,-190.95 372.81,0 691.07,81.84 963.86,245.51 272.79,163.68 481.93,400.09 627.41,709.26 154.59,300.07 227.33,663.79 227.33,1091.16l0 2555.14c0,63.65 -27.28,118.21 -63.65,154.58 -45.47,45.46 -90.93,63.65 -154.58,63.65l-800.19 0c-63.65,0 -118.21,-18.19 -154.58,-63.65 -45.46,-36.37 -63.65,-90.93 -63.65,-154.58l0 -2500.58c0,-354.63 -81.84,-627.42 -254.61,-827.47 -172.76,-200.04 -427.37,-300.07 -754.72,-300.07 -318.25,0 -563.76,100.03 -754.72,300.07 -190.95,200.05 -281.88,472.84 -281.88,827.47l0 2500.58c0,63.65 -27.28,118.21 -63.65,154.58 -45.47,45.46 -90.93,63.65 -154.58,63.65l-800.19 0z"/>
  <path id="_5" class="fil1" d="M31886.2 28306.09c-672.89,0 -1200.28,-190.95 -1600.38,-581.95 -391,-391 -609.23,-936.58 -636.51,-1654.93 0,-54.56 -9.09,-136.4 -9.09,-227.33 0,-100.02 9.09,-172.77 9.09,-227.32 27.28,-454.65 127.31,-854.75 309.17,-1182.1 190.95,-336.44 445.55,-591.04 772.9,-772.9 327.35,-172.77 709.26,-263.7 1154.82,-263.7 491.02,0 900.2,100.02 1236.65,309.16 327.35,200.05 581.95,481.93 754.72,845.65 163.67,354.63 254.6,772.91 254.6,1245.75l0 190.95c0,63.65 -27.28,109.12 -63.65,154.58 -45.46,45.47 -100.02,63.65 -163.67,63.65l-3018.89 0c0,0 0,9.1 0,27.28 0,18.19 0,27.28 0,45.47 9.1,209.14 45.47,400.09 127.31,581.95 72.74,181.86 190.95,327.35 336.44,436.46 145.49,109.12 327.35,163.68 527.39,163.68 172.77,0 318.26,-27.28 427.37,-81.84 118.21,-54.56 209.14,-109.11 281.89,-172.77 72.74,-72.74 118.21,-127.3 154.58,-163.67 54.56,-72.74 100.02,-109.12 127.3,-127.3 36.37,-18.19 81.84,-27.28 154.58,-27.28l782 0c63.65,0 109.12,18.19 145.49,54.56 36.37,36.37 54.56,81.83 54.56,136.39 -9.09,100.03 -54.56,218.23 -154.58,354.63 -90.93,136.4 -227.33,272.79 -400.09,409.19 -181.87,136.39 -400.1,245.51 -663.8,336.44 -254.6,81.84 -554.67,127.3 -900.2,127.3zm-1000.24 -2864.3l2009.56 0 0 -27.28c0,-236.42 -36.37,-436.47 -118.21,-618.33 -81.84,-181.86 -190.95,-318.25 -345.53,-418.27 -154.58,-100.03 -336.44,-154.59 -545.58,-154.59 -209.14,0 -391,54.56 -545.59,154.59 -145.48,100.02 -263.69,236.41 -336.44,418.27 -81.83,181.86 -118.21,381.91 -118.21,618.33l0 27.28z"/>
 </g>
</svg>
