<?xml version="1.0" encoding="UTF-8"?>
<!DOCTYPE svg PUBLIC "-//W3C//DTD SVG 1.1//EN" "http://www.w3.org/Graphics/SVG/1.1/DTD/svg11.dtd">
<!-- Creator: CorelDRAW 2026 -->
<svg xmlns="http://www.w3.org/2000/svg" xml:space="preserve" width="461.403mm" height="65.5018mm" version="1.1" style="shape-rendering:geometricPrecision; text-rendering:geometricPrecision; image-rendering:optimizeQuality; fill-rule:evenodd; clip-rule:evenodd"
viewBox="0 0 47867.31 6795.36"
 xmlns:xlink="http://www.w3.org/1999/xlink"
 xmlns:xodm="http://www.corel.com/coreldraw/odm/2003">
 <defs>
  <style type="text/css">
   <![CDATA[
    .fil1 {fill:black}
    .fil0 {fill:black;fill-rule:nonzero}
   ]]>
  </style>
 </defs>
 <g id="Layer_x0020_1">
  <metadata id="CorelCorpID_0Corel-Layer"/>
  <path class="fil0" d="M12654.09 6701.02c-56.6,0 -94.33,-18.87 -141.51,-56.6 -37.73,-37.73 -56.6,-84.9 -56.6,-141.5 0,-28.3 9.44,-56.6 18.87,-84.9l2273.45 -6084.53c18.86,-66.03 56.59,-122.63 113.19,-169.8 47.17,-47.17 122.63,-66.03 216.97,-66.03l1028.24 0c94.33,0 169.81,18.86 216.97,66.03 56.6,47.16 94.33,103.76 113.2,169.8l2273.44 6084.53c9.44,28.3 9.44,56.6 9.44,84.9 0,56.59 -18.87,103.76 -56.6,141.5 -37.73,37.73 -84.9,56.6 -132.06,56.6l-820.71 0c-94.33,0 -150.93,-18.87 -198.1,-66.03 -37.73,-37.73 -66.03,-75.47 -75.46,-113.2l-443.38 -1150.87 -2801.71 0 -443.37 1150.87c-9.44,37.73 -37.74,75.47 -75.47,113.2 -47.16,47.16 -113.19,66.03 -198.1,66.03l-820.7 0zm1867.8 -2414.94l2141.38 0 -1075.41 -2914.92 -1065.97 2914.92z"/>
  <path id="_1" class="fil0" d="M21244.74 6795.36c-330.16,0 -613.16,-56.6 -858.43,-169.8 -254.7,-103.77 -452.81,-264.14 -622.6,-462.24 -169.81,-198.11 -292.44,-433.94 -377.33,-707.51 -84.9,-273.57 -141.51,-575.43 -150.94,-905.6 -9.43,-113.19 -9.43,-216.97 -9.43,-301.87 0,-94.33 0,-198.1 9.43,-311.29 9.43,-311.3 56.6,-603.74 141.5,-877.31 94.33,-273.56 216.97,-509.4 386.77,-716.94 160.37,-198.1 367.9,-358.46 613.16,-471.67 254.71,-113.19 537.71,-169.8 867.87,-169.8 339.6,0 622.6,56.6 858.44,179.24 235.83,113.19 433.94,264.13 594.3,443.37l0 -2094.21c0,-66.03 18.86,-122.63 56.6,-160.37 47.16,-47.17 103.76,-66.03 169.8,-66.03l801.84 0c66.03,0 122.63,18.86 160.37,66.03 47.16,37.73 66.03,94.33 66.03,160.37l0 6244.9c0,66.03 -18.87,122.63 -66.03,160.37 -37.73,47.16 -94.33,66.03 -160.37,66.03l-745.24 0c-66.03,0 -122.63,-18.87 -160.37,-66.03 -47.17,-37.73 -66.03,-94.33 -66.03,-160.37l0 -349.03c-160.38,188.67 -358.47,358.46 -603.74,481.1 -235.83,122.63 -547.13,188.67 -905.6,188.67zm349.03 -1009.37c264.14,0 471.67,-56.6 632.04,-179.24 150.93,-122.63 273.56,-273.57 349.03,-452.81 75.46,-188.67 113.19,-377.33 122.63,-575.43 9.43,-113.2 9.43,-235.83 9.43,-367.9 0,-122.63 0,-245.27 -9.43,-358.46 -9.44,-188.67 -56.6,-367.9 -132.08,-537.7 -75.46,-179.24 -198.1,-320.74 -358.46,-433.94 -150.94,-113.2 -358.46,-169.81 -613.17,-169.81 -264.13,0 -471.67,56.6 -622.6,169.81 -160.37,122.63 -273.56,273.56 -339.59,462.23 -66.04,188.68 -103.77,396.21 -122.63,622.6 -9.44,188.67 -9.44,377.34 0,566.01 18.86,226.4 56.59,433.93 122.63,622.59 66.03,188.68 179.23,339.6 339.59,462.24 150.94,113.2 358.47,169.81 622.6,169.81z"/>
  <path id="_2" class="fil0" d="M27025.83 6795.36c-330.16,0 -613.16,-56.6 -858.43,-169.8 -254.7,-103.77 -452.81,-264.14 -622.6,-462.24 -169.81,-198.11 -292.44,-433.94 -377.33,-707.51 -84.9,-273.57 -141.51,-575.43 -150.94,-905.6 -9.43,-113.19 -9.43,-216.97 -9.43,-301.87 0,-94.33 0,-198.1 9.43,-311.29 9.43,-311.3 56.6,-603.74 141.5,-877.31 94.33,-273.56 216.97,-509.4 386.77,-716.94 160.37,-198.1 367.9,-358.46 613.16,-471.67 254.71,-113.19 537.71,-169.8 867.87,-169.8 339.6,0 622.6,56.6 858.44,179.24 235.83,113.19 433.94,264.13 594.3,443.37l0 -2094.21c0,-66.03 18.86,-122.63 56.6,-160.37 47.16,-47.17 103.76,-66.03 169.8,-66.03l801.84 0c66.03,0 122.63,18.86 160.37,66.03 47.16,37.73 66.03,94.33 66.03,160.37l0 6244.9c0,66.03 -18.87,122.63 -66.03,160.37 -37.73,47.16 -94.33,66.03 -160.37,66.03l-745.24 0c-66.03,0 -122.63,-18.87 -160.37,-66.03 -47.17,-37.73 -66.03,-94.33 -66.03,-160.37l0 -349.03c-160.38,188.67 -358.47,358.46 -603.74,481.1 -235.83,122.63 -547.13,188.67 -905.6,188.67zm349.03 -1009.37c264.14,0 471.67,-56.6 632.04,-179.24 150.93,-122.63 273.56,-273.57 349.03,-452.81 75.46,-188.67 113.19,-377.33 122.63,-575.43 9.43,-113.2 9.43,-235.83 9.43,-367.9 0,-122.63 0,-245.27 -9.43,-358.46 -9.44,-188.67 -56.6,-367.9 -132.08,-537.7 -75.46,-179.24 -198.1,-320.74 -358.46,-433.94 -150.94,-113.2 -358.46,-169.81 -613.17,-169.81 -264.13,0 -471.67,56.6 -622.6,169.81 -160.37,122.63 -273.56,273.56 -339.59,462.23 -66.04,188.68 -103.77,396.21 -122.63,622.6 -9.44,188.67 -9.44,377.34 0,566.01 18.86,226.4 56.59,433.93 122.63,622.59 66.03,188.68 179.23,339.6 339.59,462.24 150.94,113.2 358.47,169.81 622.6,169.81z"/>
  <path id="_3" class="fil0" d="M33637.06 6795.36c-556.57,0 -1037.67,-94.33 -1443.3,-283 -405.64,-188.67 -716.94,-471.67 -943.35,-858.44 -226.4,-377.33 -349.03,-858.43 -367.89,-1443.3 -9.44,-264.13 -9.44,-537.7 -9.44,-801.83 0,-264.14 0,-528.27 9.44,-811.27 18.86,-566 141.5,-1047.11 377.33,-1433.87 226.4,-386.77 547.13,-679.21 952.77,-867.87 415.07,-198.1 886.74,-292.43 1424.44,-292.43 547.13,0 1018.8,94.33 1424.43,292.43 405.64,188.67 726.38,481.1 962.21,867.87 235.84,386.76 358.47,867.87 377.33,1433.87 9.44,283 18.87,547.13 18.87,811.27 0,264.13 -9.43,537.7 -18.87,801.83 -18.86,584.87 -141.5,1065.97 -367.9,1443.3 -226.4,386.77 -537.7,669.78 -943.34,858.44 -405.64,188.67 -886.73,283 -1452.73,283zm0 -1084.84c405.64,0 735.8,-122.63 999.94,-367.89 254.7,-245.27 396.19,-632.04 415.07,-1179.17 9.43,-273.57 18.87,-537.7 18.87,-764.11 0,-235.83 -9.44,-490.53 -18.87,-764.1 -9.43,-358.47 -75.46,-660.33 -207.54,-886.74 -122.62,-226.4 -283,-396.19 -490.53,-499.97 -207.54,-113.19 -443.37,-160.37 -716.94,-160.37 -264.14,0 -499.97,47.17 -707.51,160.37 -207.54,103.77 -367.9,273.57 -490.54,499.97 -122.62,226.41 -198.1,528.27 -207.53,886.74 -9.44,273.57 -9.44,528.27 -9.44,764.1 0,226.41 0,490.54 9.44,764.11 18.86,547.13 160.37,933.91 415.07,1179.17 264.14,245.26 594.3,367.89 990.51,367.89z"/>
  <path id="_4" class="fil0" d="M37764.16 6701.02c-66.03,0 -113.19,-18.87 -160.37,-66.03 -37.73,-37.73 -66.03,-94.33 -66.03,-160.37l0 -4452.56c0,-66.03 28.3,-122.63 66.03,-160.37 47.17,-47.16 94.33,-66.03 160.37,-66.03l773.54 0c66.03,0 113.2,18.87 160.37,66.03 37.73,37.73 66.03,94.33 66.03,160.37l0 386.77c160.37,-198.11 367.9,-367.9 632.03,-509.41 254.71,-132.06 566.01,-198.1 943.35,-198.1 386.76,0 716.94,84.9 999.94,254.7 283,169.81 499.97,415.07 650.89,735.81 160.38,311.3 235.84,688.64 235.84,1132l0 2650.78c0,66.03 -28.3,122.63 -66.03,160.37 -47.17,47.16 -94.33,66.03 -160.37,66.03l-830.14 0c-66.03,0 -122.63,-18.87 -160.37,-66.03 -47.16,-37.73 -66.03,-94.33 -66.03,-160.37l0 -2594.18c0,-367.9 -84.9,-650.9 -264.14,-858.44 -179.23,-207.53 -443.37,-311.3 -782.97,-311.3 -330.16,0 -584.86,103.77 -782.97,311.3 -198.1,207.54 -292.43,490.54 -292.43,858.44l0 2594.18c0,66.03 -28.3,122.63 -66.03,160.37 -47.17,47.16 -94.33,66.03 -160.37,66.03l-830.14 0z"/>
  <path id="_5" class="fil0" d="M45538.84 6795.36c-698.08,0 -1245.21,-198.1 -1660.28,-603.73 -405.64,-405.64 -632.03,-971.64 -660.33,-1716.87 0,-56.6 -9.43,-141.51 -9.43,-235.84 0,-103.76 9.43,-179.24 9.43,-235.83 28.3,-471.67 132.08,-886.74 320.74,-1226.35 198.1,-349.03 462.23,-613.16 801.83,-801.83 339.6,-179.24 735.81,-273.57 1198.05,-273.57 509.4,0 933.89,103.76 1282.94,320.73 339.6,207.54 603.73,499.97 782.97,877.3 169.8,367.9 264.13,801.84 264.13,1292.38l0 198.1c0,66.03 -28.3,113.2 -66.03,160.37 -47.16,47.17 -103.76,66.03 -169.8,66.03l-3131.89 0c0,0 0,9.44 0,28.3 0,18.87 0,28.3 0,47.17 9.44,216.97 47.17,415.07 132.08,603.73 75.46,188.67 198.1,339.6 349.03,452.8 150.94,113.2 339.6,169.81 547.13,169.81 179.24,0 330.17,-28.3 443.37,-84.9 122.63,-56.6 216.97,-113.19 292.44,-179.24 75.46,-75.46 122.63,-132.06 160.37,-169.8 56.6,-75.46 103.76,-113.2 132.06,-132.06 37.73,-18.87 84.9,-28.3 160.37,-28.3l811.27 0c66.03,0 113.2,18.87 150.94,56.6 37.73,37.73 56.6,84.89 56.6,141.5 -9.43,103.77 -56.6,226.4 -160.37,367.9 -94.33,141.51 -235.84,283 -415.07,424.51 -188.68,141.5 -415.08,254.7 -688.65,349.03 -264.13,84.9 -575.43,132.06 -933.89,132.06zm-1037.68 -2971.51l2084.78 0 0 -28.3c0,-245.27 -37.73,-452.81 -122.63,-641.47 -84.9,-188.67 -198.1,-330.16 -358.46,-433.93 -160.37,-103.77 -349.03,-160.38 -566,-160.38 -216.97,0 -405.64,56.6 -566.01,160.38 -150.93,103.76 -273.56,245.26 -349.03,433.93 -84.89,188.67 -122.63,396.21 -122.63,641.47l0 28.3z"/>
  <path class="fil1" d="M7275.12 0l1575.98 0c129.32,0 235.1,105.79 235.1,235.09l0 1575.99c0,129.31 -105.79,235.1 -235.1,235.1l-1575.98 0c-129.32,0 -235.1,-105.8 -235.1,-235.1l0 -1575.99c0,-129.31 105.79,-235.09 235.1,-235.09zm-2340.81 2327.46l1575.98 0c129.31,0 235.1,105.8 235.1,235.1l0 1575.98c0,129.32 -105.8,235.1 -235.1,235.1l-1575.98 0c-129.32,0 -235.1,-105.79 -235.1,-235.1l0 -1575.98c0,-129.31 105.79,-235.1 235.1,-235.1zm-2350.07 2345.41l1575.98 0c129.31,0 235.1,105.79 235.1,235.1l0 1575.98c0,129.32 -105.8,235.1 -235.1,235.1l-1575.98 0c-129.32,0 -235.1,-105.79 -235.1,-235.1l0 -1575.98c0,-129.32 105.79,-235.1 235.1,-235.1zm-2349.14 -2329.39l1575.98 0c129.32,0 235.1,105.79 235.1,235.1l0 1575.98c0,129.31 -105.79,235.1 -235.1,235.1l-1575.98 0c-129.31,0 -235.1,-105.8 -235.1,-235.1l0 -1575.98c0,-129.32 105.8,-235.1 235.1,-235.1z"/>
 </g>
</svg>
