<?xml version="1.0" encoding="UTF-8"?>
<!DOCTYPE svg PUBLIC "-//W3C//DTD SVG 1.1//EN" "http://www.w3.org/Graphics/SVG/1.1/DTD/svg11.dtd">
<!-- Creator: CorelDRAW 2026 -->
<svg xmlns="http://www.w3.org/2000/svg" xml:space="preserve" width="212.265mm" height="156.966mm" version="1.1" style="shape-rendering:geometricPrecision; text-rendering:geometricPrecision; image-rendering:optimizeQuality; fill-rule:evenodd; clip-rule:evenodd"
viewBox="0 0 21226.52 15696.6"
 xmlns:xlink="http://www.w3.org/1999/xlink"
 xmlns:xodm="http://www.corel.com/coreldraw/odm/2003">
 <defs>
  <style type="text/css">
   <![CDATA[
    .fil0 {fill:black}
   ]]>
  </style>
 </defs>
 <g id="Layer_x0020_1">
  <metadata id="CorelCorpID_0Corel-Layer"/>
  <path class="fil0" d="M16995.59 0l3681.71 0c302.08,0 549.22,247.14 549.22,549.22l0 3681.71c0,302.08 -247.14,549.22 -549.22,549.22l-3681.71 0c-302.08,0 -549.22,-247.14 -549.22,-549.22l0 -3681.71c0,-302.08 247.14,-549.22 549.22,-549.22zm-5468.42 5437.27l3681.71 0c302.08,0 549.22,247.13 549.22,549.22l0 3681.71c0,302.08 -247.14,549.22 -549.22,549.22l-3681.71 0c-302.09,0 -549.22,-247.14 -549.22,-549.22l0 -3681.71c0,-302.09 247.13,-549.22 549.22,-549.22zm-5490.07 5479.17l3681.71 0c302.09,0 549.23,247.14 549.23,549.22l0 3681.71c0,302.08 -247.14,549.22 -549.23,549.22l-3681.71 0c-302.08,0 -549.22,-247.14 -549.22,-549.22l0 -3681.71c0,-302.08 247.14,-549.22 549.22,-549.22zm-5487.87 -5441.77l3681.71 0c302.08,0 549.22,247.14 549.22,549.22l0 3681.71c0,302.09 -247.14,549.23 -549.22,549.23l-3681.71 0c-302.08,0 -549.22,-247.14 -549.22,-549.23l0 -3681.71c0,-302.08 247.14,-549.22 549.22,-549.22z"/>
 </g>
</svg>
