<?xml version='1.0' encoding='UTF-8'?>
<svg width="31mm" height="31mm" version="1.1" viewBox="0 0 31 31" xmlns="http://www.w3.org/2000/svg"><path d="M1,1H2V2H1zM2,1H3V2H2zM3,1H4V2H3zM4,1H5V2H4zM5,1H6V2H5zM6,1H7V2H6zM7,1H8V2H7zM12,1H13V2H12zM16,1H17V2H16zM17,1H18V2H17zM20,1H21V2H20zM21,1H22V2H21zM23,1H24V2H23zM24,1H25V2H24zM25,1H26V2H25zM26,1H27V2H26zM27,1H28V2H27zM28,1H29V2H28zM29,1H30V2H29zM1,2H2V3H1zM7,2H8V3H7zM10,2H11V3H10zM13,2H14V3H13zM18,2H19V3H18zM19,2H20V3H19zM21,2H22V3H21zM23,2H24V3H23zM29,2H30V3H29zM1,3H2V4H1zM3,3H4V4H3zM4,3H5V4H4zM5,3H6V4H5zM7,3H8V4H7zM9,3H10V4H9zM10,3H11V4H10zM15,3H16V4H15zM17,3H18V4H17zM20,3H21V4H20zM21,3H22V4H21zM23,3H24V4H23zM25,3H26V4H25zM26,3H27V4H26zM27,3H28V4H27zM29,3H30V4H29zM1,4H2V5H1zM3,4H4V5H3zM4,4H5V5H4zM5,4H6V5H5zM7,4H8V5H7zM9,4H10V5H9zM10,4H11V5H10zM12,4H13V5H12zM13,4H14V5H13zM17,4H18V5H17zM18,4H19V5H18zM20,4H21V5H20zM23,4H24V5H23zM25,4H26V5H25zM26,4H27V5H26zM27,4H28V5H27zM29,4H30V5H29zM1,5H2V6H1zM3,5H4V6H3zM4,5H5V6H4zM5,5H6V6H5zM7,5H8V6H7zM9,5H10V6H9zM11,5H12V6H11zM12,5H13V6H12zM13,5H14V6H13zM14,5H15V6H14zM15,5H16V6H15zM16,5H17V6H16zM20,5H21V6H20zM23,5H24V6H23zM25,5H26V6H25zM26,5H27V6H26zM27,5H28V6H27zM29,5H30V6H29zM1,6H2V7H1zM7,6H8V7H7zM9,6H10V7H9zM11,6H12V7H11zM13,6H14V7H13zM14,6H15V7H14zM15,6H16V7H15zM16,6H17V7H16zM17,6H18V7H17zM21,6H22V7H21zM23,6H24V7H23zM29,6H30V7H29zM1,7H2V8H1zM2,7H3V8H2zM3,7H4V8H3zM4,7H5V8H4zM5,7H6V8H5zM6,7H7V8H6zM7,7H8V8H7zM9,7H10V8H9zM11,7H12V8H11zM13,7H14V8H13zM15,7H16V8H15zM17,7H18V8H17zM19,7H20V8H19zM21,7H22V8H21zM23,7H24V8H23zM24,7H25V8H24zM25,7H26V8H25zM26,7H27V8H26zM27,7H28V8H27zM28,7H29V8H28zM29,7H30V8H29zM9,8H10V9H9zM11,8H12V9H11zM12,8H13V9H12zM14,8H15V9H14zM16,8H17V9H16zM19,8H20V9H19zM20,8H21V9H20zM21,8H22V9H21zM1,9H2V10H1zM3,9H4V10H3zM4,9H5V10H4zM5,9H6V10H5zM6,9H7V10H6zM7,9H8V10H7zM10,9H11V10H10zM12,9H13V10H12zM15,9H16V10H15zM16,9H17V10H16zM18,9H19V10H18zM20,9H21V10H20zM23,9H24V10H23zM24,9H25V10H24zM25,9H26V10H25zM26,9H27V10H26zM27,9H28V10H27zM1,10H2V11H1zM3,10H4V11H3zM4,10H5V11H4zM11,10H12V11H11zM16,10H17V11H16zM17,10H18V11H17zM19,10H20V11H19zM20,10H21V11H20zM21,10H22V11H21zM22,10H23V11H22zM23,10H24V11H23zM24,10H25V11H24zM25,10H26V11H25zM29,10H30V11H29zM1,11H2V12H1zM5,11H6V12H5zM6,11H7V12H6zM7,11H8V12H7zM19,11H20V12H19zM21,11H22V12H21zM23,11H24V12H23zM24,11H25V12H24zM2,12H3V13H2zM3,12H4V13H3zM4,12H5V13H4zM13,12H14V13H13zM15,12H16V13H15zM17,12H18V13H17zM22,12H23V13H22zM23,12H24V13H23zM24,12H25V13H24zM26,12H27V13H26zM28,12H29V13H28zM1,13H2V14H1zM2,13H3V14H2zM4,13H5V14H4zM5,13H6V14H5zM7,13H8V14H7zM10,13H11V14H10zM12,13H13V14H12zM17,13H18V14H17zM18,13H19V14H18zM20,13H21V14H20zM26,13H27V14H26zM27,13H28V14H27zM1,14H2V15H1zM2,14H3V15H2zM3,14H4V15H3zM4,14H5V15H4zM5,14H6V15H5zM9,14H10V15H9zM11,14H12V15H11zM12,14H13V15H12zM14,14H15V15H14zM15,14H16V15H15zM16,14H17V15H16zM20,14H21V15H20zM21,14H22V15H21zM22,14H23V15H22zM23,14H24V15H23zM24,14H25V15H24zM25,14H26V15H25zM29,14H30V15H29zM1,15H2V16H1zM5,15H6V16H5zM6,15H7V16H6zM7,15H8V16H7zM9,15H10V16H9zM10,15H11V16H10zM11,15H12V16H11zM14,15H15V16H14zM15,15H16V16H15zM16,15H17V16H16zM17,15H18V16H17zM18,15H19V16H18zM19,15H20V16H19zM25,15H26V16H25zM26,15H27V16H26zM27,15H28V16H27zM2,16H3V17H2zM5,16H6V17H5zM6,16H7V17H6zM9,16H10V17H9zM11,16H12V17H11zM14,16H15V17H14zM16,16H17V17H16zM19,16H20V17H19zM21,16H22V17H21zM24,16H25V17H24zM25,16H26V17H25zM28,16H29V17H28zM2,17H3V18H2zM3,17H4V18H3zM5,17H6V18H5zM6,17H7V18H6zM7,17H8V18H7zM8,17H9V18H8zM12,17H13V18H12zM13,17H14V18H13zM15,17H16V18H15zM16,17H17V18H16zM18,17H19V18H18zM22,17H23V18H22zM26,17H27V18H26zM27,17H28V18H27zM1,18H2V19H1zM2,18H3V19H2zM13,18H14V19H13zM16,18H17V19H16zM17,18H18V19H17zM20,18H21V19H20zM21,18H22V19H21zM22,18H23V19H22zM23,18H24V19H23zM24,18H25V19H24zM25,18H26V19H25zM27,18H28V19H27zM29,18H30V19H29zM1,19H2V20H1zM5,19H6V20H5zM7,19H8V20H7zM8,19H9V20H8zM9,19H10V20H9zM12,19H13V20H12zM13,19H14V20H13zM21,19H22V20H21zM23,19H24V20H23zM25,19H26V20H25zM27,19H28V20H27zM1,20H2V21H1zM4,20H5V21H4zM5,20H6V21H5zM9,20H10V21H9zM15,20H16V21H15zM17,20H18V21H17zM19,20H20V21H19zM21,20H22V21H21zM22,20H23V21H22zM23,20H24V21H23zM24,20H25V21H24zM25,20H26V21H25zM28,20H29V21H28zM1,21H2V22H1zM3,21H4V22H3zM4,21H5V22H4zM5,21H6V22H5zM6,21H7V22H6zM7,21H8V22H7zM10,21H11V22H10zM12,21H13V22H12zM17,21H18V22H17zM19,21H20V22H19zM21,21H22V22H21zM22,21H23V22H22zM23,21H24V22H23zM24,21H25V22H24zM25,21H26V22H25zM27,21H28V22H27zM28,21H29V22H28zM29,21H30V22H29zM9,22H10V23H9zM10,22H11V23H10zM11,22H12V23H11zM13,22H14V23H13zM14,22H15V23H14zM15,22H16V23H15zM16,22H17V23H16zM18,22H19V23H18zM19,22H20V23H19zM20,22H21V23H20zM21,22H22V23H21zM25,22H26V23H25zM26,22H27V23H26zM27,22H28V23H27zM28,22H29V23H28zM29,22H30V23H29zM1,23H2V24H1zM2,23H3V24H2zM3,23H4V24H3zM4,23H5V24H4zM5,23H6V24H5zM6,23H7V24H6zM7,23H8V24H7zM10,23H11V24H10zM12,23H13V24H12zM14,23H15V24H14zM15,23H16V24H15zM16,23H17V24H16zM17,23H18V24H17zM18,23H19V24H18zM20,23H21V24H20zM21,23H22V24H21zM23,23H24V24H23zM25,23H26V24H25zM26,23H27V24H26zM27,23H28V24H27zM1,24H2V25H1zM7,24H8V25H7zM9,24H10V25H9zM10,24H11V25H10zM12,24H13V25H12zM13,24H14V25H13zM14,24H15V25H14zM16,24H17V25H16zM18,24H19V25H18zM19,24H20V25H19zM20,24H21V25H20zM21,24H22V25H21zM25,24H26V25H25zM29,24H30V25H29zM1,25H2V26H1zM3,25H4V26H3zM4,25H5V26H4zM5,25H6V26H5zM7,25H8V26H7zM9,25H10V26H9zM10,25H11V26H10zM13,25H14V26H13zM15,25H16V26H15zM16,25H17V26H16zM21,25H22V26H21zM22,25H23V26H22zM23,25H24V26H23zM24,25H25V26H24zM25,25H26V26H25zM27,25H28V26H27zM28,25H29V26H28zM29,25H30V26H29zM1,26H2V27H1zM3,26H4V27H3zM4,26H5V27H4zM5,26H6V27H5zM7,26H8V27H7zM9,26H10V27H9zM10,26H11V27H10zM13,26H14V27H13zM14,26H15V27H14zM16,26H17V27H16zM17,26H18V27H17zM19,26H20V27H19zM26,26H27V27H26zM27,26H28V27H27zM1,27H2V28H1zM3,27H4V28H3zM4,27H5V28H4zM5,27H6V28H5zM7,27H8V28H7zM9,27H10V28H9zM10,27H11V28H10zM11,27H12V28H11zM12,27H13V28H12zM13,27H14V28H13zM15,27H16V28H15zM19,27H20V28H19zM20,27H21V28H20zM23,27H24V28H23zM24,27H25V28H24zM25,27H26V28H25zM26,27H27V28H26zM27,27H28V28H27zM28,27H29V28H28zM1,28H2V29H1zM7,28H8V29H7zM14,28H15V29H14zM17,28H18V29H17zM20,28H21V29H20zM21,28H22V29H21zM22,28H23V29H22zM24,28H25V29H24zM25,28H26V29H25zM26,28H27V29H26zM28,28H29V29H28zM1,29H2V30H1zM2,29H3V30H2zM3,29H4V30H3zM4,29H5V30H4zM5,29H6V30H5zM6,29H7V30H6zM7,29H8V30H7zM9,29H10V30H9zM13,29H14V30H13zM15,29H16V30H15zM17,29H18V30H17zM19,29H20V30H19zM20,29H21V30H20zM23,29H24V30H23zM25,29H26V30H25zM27,29H28V30H27z" id="qr-path" fill="#000000" fill-opacity="1" fill-rule="nonzero" stroke="none"/></svg>